<svg xmlns="http://www.w3.org/2000/svg" width="252.066" height="252.07" viewBox="0 0 252.066 252.07">
  <g id="phone-6006" transform="translate(126.033 126.036)">
    <g id="Group_1" data-name="Group 1" transform="translate(-126.036 -126.036)">
      <path id="Path_1" data-name="Path 1" d="M194.535,247.428,219.569,234.8a17.947,17.947,0,0,0,2.644-30.411l-37.791-28.17a17.947,17.947,0,0,0-19.558-1.235l-10.976,6.2a17.748,17.748,0,0,1-17.051.33,157.141,157.141,0,0,1-66.281-66.281,17.749,17.749,0,0,1,.33-17.051l6.2-10.976a17.947,17.947,0,0,0-1.235-19.558L47.684,29.859A17.944,17.944,0,0,0,17.273,32.5L4.644,57.537A42.831,42.831,0,0,0,3.955,94.9Q52.689,199.386,157.17,248.117A42.832,42.832,0,0,0,194.535,247.428Z" fill="#2680eb"/>
      <path id="Path_2" data-name="Path 2" d="M240.625,148.8a11.446,11.446,0,0,1-11.447-11.448A114.592,114.592,0,0,0,114.715,22.891a11.446,11.446,0,1,1,0-22.891c75.736,0,137.354,61.618,137.354,137.354A11.444,11.444,0,0,1,240.623,148.8Z" fill="#2680eb"/>
      <path id="Path_3" data-name="Path 3" d="M194.84,148.8a11.446,11.446,0,0,1-11.447-11.448,68.754,68.754,0,0,0-68.678-68.677,11.447,11.447,0,0,1,0-22.894,91.673,91.673,0,0,1,91.569,91.569A11.442,11.442,0,0,1,194.84,148.8Z" fill="#2680eb"/>
    </g>
  </g>
</svg>
