<svg xmlns="http://www.w3.org/2000/svg" xmlns:xlink="http://www.w3.org/1999/xlink" width="45.5" height="52.5" viewBox="0 0 45.5 52.5">
  <defs>
    <clipPath id="clip-ic-digitalize-1">
      <rect width="45.5" height="52.5"/>
    </clipPath>
  </defs>
  <g id="ic-digitalize-1" clip-path="url(#clip-ic-digitalize-1)">
    <path id="Path_1935" data-name="Path 1935" d="M151.5,858.625h-2.786a2.627,2.627,0,0,0-1.586-1.588l.028-7.159a.876.876,0,0,0-.871-.878h0a.876.876,0,0,0-.875.872l-.028,7.163a2.618,2.618,0,1,0,3.336,3.34H151.5a.875.875,0,1,0,0-1.75Zm-5.25,1.75a.878.878,0,1,1,.618-.257.876.876,0,0,1-.618.257Zm20.466,3.775a20.466,20.466,0,0,0-3.565-16.932l1.511-1.514a2.629,2.629,0,0,0,0-3.71l-1.875-1.876a2.628,2.628,0,0,0-3.713,0l-1.69,1.691a20.785,20.785,0,0,0-8.507-3.131v-2.8a2.629,2.629,0,0,0,2.625-2.625v-.875a2.629,2.629,0,0,0-2.625-2.625h-5.25A2.629,2.629,0,0,0,141,832.375v.875a2.629,2.629,0,0,0,2.625,2.625v2.8a20.785,20.785,0,0,0-8.507,3.131l-1.691-1.691a2.627,2.627,0,0,0-3.712,0l-1.875,1.876a2.628,2.628,0,0,0,0,3.709l1.511,1.515a20.7,20.7,0,0,0-4.1,12.282,21,21,0,0,0,28.244,19.71,10.051,10.051,0,1,0,13.222-15.06Zm-6.406-22.794a.875.875,0,0,1,1.238,0l1.875,1.876a.878.878,0,0,1,0,1.237l-1.374,1.377a21.78,21.78,0,0,0-3.21-3.018Zm-17.56-8.106v-.875a.878.878,0,0,1,.875-.875h5.25a.878.878,0,0,1,.875.875v.875a.878.878,0,0,1-.875.875h-5.25a.878.878,0,0,1-.875-.875Zm2.625,2.625h1.75v2.648q-.874-.043-1.75,0Zm-16.3,8.592a.876.876,0,0,1,0-1.236l1.875-1.875a.878.878,0,0,1,1.238,0l1.472,1.472a21.737,21.737,0,0,0-3.211,3.018ZM146.25,878.75A19.273,19.273,0,0,1,127,859.5a19.251,19.251,0,0,1,38.5,0,19.145,19.145,0,0,1-.362,3.676,9.9,9.9,0,0,0-1.665-.65,17.066,17.066,0,0,0,.277-3.026,17.5,17.5,0,1,0-17.5,17.5,17.236,17.236,0,0,0,5.2-.826,10.108,10.108,0,0,0,.856,1.574,19.112,19.112,0,0,1-6.058,1Zm4.375-6.562a10.027,10.027,0,0,0,.283,2.327,15.656,15.656,0,0,1-3.783.694v-2.584a.875.875,0,1,0-1.75,0v2.581a15.668,15.668,0,0,1-9.609-3.985l1.822-1.822a.875.875,0,0,0-1.237-1.237l-1.822,1.822a15.668,15.668,0,0,1-3.985-9.609h2.581a.875.875,0,1,0,0-1.75h-2.581a15.668,15.668,0,0,1,3.985-9.609l1.822,1.822a.875.875,0,0,0,1.237-1.237l-1.822-1.822a15.668,15.668,0,0,1,9.609-3.985v2.581a.875.875,0,1,0,1.75,0v-2.581a15.668,15.668,0,0,1,9.609,3.985l-1.822,1.822a.875.875,0,0,0,1.237,1.237l1.822-1.822a15.668,15.668,0,0,1,3.985,9.609h-2.581a.875.875,0,1,0,0,1.75h2.6a15.689,15.689,0,0,1-.214,1.809,10.048,10.048,0,0,0-11.134,10Zm10.063,8.312a8.32,8.32,0,1,1,5.875-2.437,8.316,8.316,0,0,1-5.875,2.437Zm.757-9.562v-2.281c.913-.082,1.612,1.05,2.383.343,1.4-1.821-.983-2.387-2.383-2.406V866.2c-.037-.428-.728-.532-1.016-.3-.251.142-.154.512-.171.734a3.169,3.169,0,0,0-2.844,4.446,4.969,4.969,0,0,0,2.844,1.945v2.531c-.948-.073-1.472-1.012-2.344-1.125-.614.007-1.05.767-1.062,1.312.174,1.439,2.076,1.97,3.406,2.031v.391c.041.42.689.543,1,.289.276-.15.167-.508.187-.742a3.4,3.4,0,0,0,2.8-4.758,4.7,4.7,0,0,0-2.8-2.023Zm-1.031-.375c-1.236-.383-1.4-1.6,0-1.859Zm1.554,4.656a1.558,1.558,0,0,1-.679.328v-2.094c.733.233,1.334,1.158.679,1.766Z" transform="translate(-125.25 -829.75)" fill="#3d9ae2"/>
  </g>
</svg>
