<svg xmlns="http://www.w3.org/2000/svg" xmlns:xlink="http://www.w3.org/1999/xlink" width="85.27" height="86.23" viewBox="0 0 85.27 86.23">
  <defs>
    <linearGradient id="linear-gradient" x1="0.5" x2="0.5" y2="1" gradientUnits="objectBoundingBox">
      <stop offset="0" stop-color="#ffe9bc"/>
      <stop offset="1" stop-color="#ffb626"/>
    </linearGradient>
    <clipPath id="clip-ic-product-2">
      <rect width="85.27" height="86.23"/>
    </clipPath>
  </defs>
  <g id="ic-product-2" clip-path="url(#clip-ic-product-2)">
    <g id="Group_31" data-name="Group 31" transform="translate(0 0)">
      <path id="Path_319104" data-name="Path 319104" d="M42.753,0A43.119,43.119,0,1,1,0,43.117,42.936,42.936,0,0,1,42.753,0Z" fill="url(#linear-gradient)"/>
      <g id="Group_9261" data-name="Group 9261" transform="translate(20.061 21.209)">
        <ellipse id="Ellipse_1905" data-name="Ellipse 1905" cx="9.258" cy="9.337" rx="9.258" ry="9.337" transform="translate(13.226 13.277)" fill="#fff"/>
        <g id="Group_9260" data-name="Group 9260" transform="translate(0 0)">
          <path id="Path_10889" data-name="Path 10889" d="M1398.374,703.432c0-.078-.012-.158-.018-.237-.017-.237-.041-.471-.065-.708q-.023-.214-.051-.428c-.018-.142-.042-.312-.067-.466-.028-.189-.056-.379-.091-.57a.8.8,0,0,0-.025-.126c-.06-.324-.125-.646-.2-.963l-.021-.085q-.114-.483-.246-.956c-.012-.044-.026-.089-.038-.131q-.128-.439-.272-.871c-.025-.074-.053-.149-.079-.223-.088-.253-.175-.5-.274-.75-.04-.106-.086-.212-.13-.317-.081-.2-.163-.395-.249-.588-.175-.391-.351-.777-.551-1.154l-.04-.076q-.295-.558-.618-1.1l-.084-.138c-.184-.3-.378-.593-.576-.885-.106-.156-.211-.31-.319-.46-.175-.244-.351-.481-.541-.708-.11-.142-.221-.283-.335-.42q-.282-.341-.579-.671c-.125-.14-.249-.278-.379-.414-.2-.2-.391-.4-.588-.6-.146-.143-.293-.285-.442-.423-.189-.177-.386-.354-.583-.517s-.351-.3-.526-.439-.367-.289-.553-.43c-.109-.081-.219-.161-.328-.241l.012.034a20.25,20.25,0,0,1,3.375,11.369c0,9.912-6.682,17.948-14.962,18.068A21.253,21.253,0,0,0,1390.6,717a20.948,20.948,0,0,0,3.315-1.287,6.444,6.444,0,0,0,3.259-3.6l.009-.023.014-.042c.088-.246.175-.494.249-.745.025-.08.045-.161.07-.239.054-.177.11-.37.162-.556.058-.219.112-.443.167-.664.01-.048.025-.1.035-.141a21.778,21.778,0,0,0,.541-5.247Q1398.391,703.941,1398.374,703.432Z" transform="translate(-1353.402 -682.745)" fill="#fff"/>
          <path id="Path_10890" data-name="Path 10890" d="M1367.053,681.216l-.235.012c-.235.011-.467.027-.7.046-.142.012-.284.023-.425.037l-.463.055c-.188.023-.377.046-.567.074l-.125.021c-.323.05-.644.108-.96.177l-.086.019q-.481.1-.955.221l-.132.035q-.438.115-.877.25l-.223.074q-.379.122-.751.257c-.107.037-.212.082-.318.12-.2.076-.393.154-.588.235-.393.165-.784.336-1.16.531l-.077.039q-.561.278-1.1.593l-.14.081c-.3.177-.6.365-.893.556-.156.1-.313.2-.465.308-.246.177-.491.345-.726.531-.144.108-.286.214-.427.326-.23.177-.456.372-.679.565-.142.122-.282.244-.421.37-.209.188-.411.382-.611.579-.146.143-.293.287-.432.434-.176.186-.351.379-.526.572s-.3.342-.451.517-.293.354-.44.545c-.084.106-.165.216-.248.326l.034-.012a19.82,19.82,0,0,1,11.364-3.083c9.814.278,17.6,7.241,17.489,15.592a21.8,21.8,0,0,0,.542-12.764,21.393,21.393,0,0,0-1.183-3.379,6.44,6.44,0,0,0-3.477-3.39l-.023-.009-.042-.016q-.363-.142-.73-.271l-.237-.078c-.175-.062-.363-.122-.548-.177q-.324-.1-.653-.186l-.14-.039a21.237,21.237,0,0,0-5.179-.692A8.676,8.676,0,0,0,1367.053,681.216Z" transform="translate(-1346.434 -681.203)" fill="#fff"/>
          <path id="Path_10891" data-name="Path 10891" d="M1344.9,707.557v.239c0,.237.011.473.019.708,0,.143.014.287.023.43s.021.313.037.467c.018.191.031.382.053.575,0,.042.009.084.016.126q.058.492.135.974a.483.483,0,0,0,.016.087q.083.49.175.97c.011.044.021.089.03.135q.1.448.214.885l.063.227c.072.257.146.513.226.766.035.11.072.218.109.326.067.2.137.4.211.6.149.4.305.8.476,1.188l.037.078q.256.577.544,1.135l.075.143c.163.312.339.618.518.92.1.161.19.322.29.482.158.255.323.5.491.75.1.149.2.3.307.443.176.241.351.474.527.708.116.147.23.3.351.437.175.218.365.428.551.637.137.152.274.3.416.453.176.188.36.372.546.554s.328.319.492.473.351.313.526.465c.1.089.207.177.312.262l-.012-.032a20.276,20.276,0,0,1-2.633-11.569c.646-9.886,7.838-17.467,16.108-17.038a21.273,21.273,0,0,0-12.628-1.027,21.055,21.055,0,0,0-3.392,1.062,6.435,6.435,0,0,0-3.486,3.375l-.01.023-.016.042c-.1.239-.2.483-.295.726l-.084.234c-.067.177-.135.354-.2.545-.074.216-.14.434-.207.65l-.046.14a21.8,21.8,0,0,0-.877,5.193C1344.9,706.875,1344.9,707.217,1344.9,707.557Z" transform="translate(-1344.9 -684.424)" fill="#fff"/>
          <path id="Path_10892" data-name="Path 10892" d="M1371.251,734.339l.235-.009c.235-.009.469-.025.7-.041l.427-.034c.14-.014.309-.034.463-.051.19-.021.377-.042.569-.071l.126-.019c.321-.05.644-.1.962-.165l.086-.018q.483-.1.957-.214l.132-.034c.293-.076.584-.156.878-.243l.223-.071q.379-.117.753-.25l.319-.119c.2-.074.393-.149.588-.228.393-.161.785-.331,1.165-.513l.077-.039q.563-.274,1.107-.582l.14-.08c.3-.177.6-.354.9-.547.158-.1.314-.2.469-.3q.371-.252.73-.519c.146-.106.288-.213.43-.322.232-.177.46-.368.686-.559.142-.12.284-.243.425-.366.209-.186.414-.379.616-.573.147-.143.295-.285.435-.432q.272-.278.527-.566c.154-.177.307-.34.454-.513s.295-.354.446-.543c.086-.106.176-.214.251-.322l-.031.01a19.822,19.822,0,0,1-11.385,2.986c-9.814-.354-17.54-7.39-17.36-15.739a21.8,21.8,0,0,0-.648,12.76,21.352,21.352,0,0,0,1.156,3.388,6.436,6.436,0,0,0,3.448,3.415l.022.009.042.016q.362.145.729.278l.235.08c.175.062.362.126.546.177q.323.1.651.191l.14.041a21.248,21.248,0,0,0,5.176.738C1370.585,734.351,1370.918,734.348,1371.251,734.339Z" transform="translate(-1348.126 -689.251)" fill="#fff"/>
        </g>
      </g>
    </g>
  </g>
</svg>
