<svg xmlns="http://www.w3.org/2000/svg" xmlns:xlink="http://www.w3.org/1999/xlink" id="Layer_1" x="0px" y="0px" viewBox="0 0 800 800" style="enable-background:new 0 0 800 800;" xml:space="preserve">
<style type="text/css">
	.st0{fill:#FFFFFF;}
	.st1{fill:none;stroke:#2887C8;stroke-width:5;stroke-miterlimit:10;}
	.st2{fill:#E4F2FC;}
	.st3{fill:none;stroke:#2887C8;stroke-width:5;stroke-linecap:round;stroke-linejoin:round;stroke-miterlimit:10;}
	.st4{fill:#B6DDF5;}
	.st5{fill:#2887C8;}
	.st6{fill:#E4F0CC;}
	.st7{fill:#0B9D49;}
</style>
<rect x="288" y="650.1" class="st0" width="224.2" height="78.5"></rect>
<rect x="288" y="650.1" class="st1" width="224.2" height="78.5"></rect>
<path class="st0" d="M775.1,136.2v443.7c0,38.8-31.5,70.3-70.3,70.3H95.4c-38.8,0-70.3-31.5-70.3-70.3V136.2  c0-38.8,31.5-70.3,70.3-70.3h609.4C743.7,65.9,775.1,97.3,775.1,136.2"></path>
<path class="st1" d="M775.1,136.2v443.7c0,38.8-31.5,70.3-70.3,70.3H95.4c-38.8,0-70.3-31.5-70.3-70.3V136.2  c0-38.8,31.5-70.3,70.3-70.3h609.4C743.7,65.9,775.1,97.3,775.1,136.2z"></path>
<path class="st2" d="M775.1,136.2v436.8h-750V136.2c0-38.8,31.5-70.3,70.3-70.3h609.4C743.7,65.9,775.1,97.3,775.1,136.2"></path>
<path class="st1" d="M775.1,136.2v436.8h-750V136.2c0-38.8,31.5-70.3,70.3-70.3h609.4C743.7,65.9,775.1,97.3,775.1,136.2z"></path>
<rect x="82.6" y="132.4" class="st0" width="635" height="391.4"></rect>
<rect x="82.6" y="132.4" class="st1" width="635" height="391.4"></rect>
<line class="st3" x1="182.9" y1="728.6" x2="617.3" y2="728.6"></line>
<line class="st3" x1="656" y1="728.6" x2="677.7" y2="728.6"></line>
<line class="st3" x1="713.5" y1="728.6" x2="716" y2="728.6"></line>
<line class="st3" x1="144.3" y1="728.6" x2="122.5" y2="728.6"></line>
<line class="st3" x1="86.7" y1="728.6" x2="84.3" y2="728.6"></line>
<rect x="123.9" y="176.3" class="st4" width="552.5" height="26.8"></rect>
<rect x="123.9" y="176.3" class="st5" width="58.1" height="26.8"></rect>
<path class="st6" d="M446.4,320.2l-10.6-10.5c-2-2-2-5.3,0-7.3l20.2-20.2c2-2,5.3-2,7.3,0l10.6,10.5c2,2,2,5.3,0,7.3l-20.2,20.2  C451.6,322.2,448.4,322.2,446.4,320.2"></path>
<path class="st7" d="M450,327.6c-3,0-5.7-1.2-7.8-3.3l-10.6-10.5c-2.1-2.1-3.2-4.9-3.2-7.8c0-3,1.2-5.7,3.2-7.8l20.2-20.2  c2.1-2.1,4.9-3.3,7.8-3.3c3,0,5.7,1.2,7.8,3.3l10.6,10.5c2.1,2.1,3.2,4.9,3.2,7.8c0,3-1.1,5.7-3.2,7.8l-20.2,20.2  C455.8,326.5,453,327.6,450,327.6 M440.5,306l9.5,9.5l19.2-19.2l-9.5-9.5L440.5,306z"></path>
<path class="st6" d="M336.9,429.6L326.4,419c-2-2-2-5.3,0-7.3l20.2-20.2c2-2,5.3-2,7.3,0l10.5,10.5c2,2,2,5.3,0,7.3l-20.2,20.2  C342.2,431.6,339,431.6,336.9,429.6"></path>
<path class="st7" d="M340.6,437c-3,0-5.7-1.2-7.8-3.3l-10.6-10.6c-2.1-2.1-3.3-4.9-3.3-7.8c0-3,1.2-5.7,3.3-7.8l20.2-20.2  c2.1-2.1,4.9-3.3,7.8-3.3c3,0,5.7,1.2,7.8,3.3l10.5,10.5c2.1,2.1,3.3,4.9,3.3,7.8c0,3-1.2,5.7-3.3,7.8l-20.2,20.2  C346.3,435.9,343.6,437,340.6,437 M331.1,415.4l9.5,9.5l19.2-19.2l-9.5-9.5L331.1,415.4z"></path>
<path class="st6" d="M435.8,402.1l10.6-10.6c2-2,5.3-2,7.3,0l20.2,20.2c2,2,2,5.3,0,7.3l-10.5,10.6c-2,2-5.3,2-7.3,0l-20.2-20.2  C433.8,407.4,433.8,404.1,435.8,402.1"></path>
<path class="st7" d="M459.7,437c-3,0-5.8-1.1-7.8-3.3l-20.2-20.2c-2.1-2.1-3.2-4.9-3.2-7.8c0-3,1.2-5.7,3.2-7.8l10.6-10.6  c2.1-2.1,4.9-3.2,7.8-3.2c3,0,5.7,1.2,7.8,3.2l20.2,20.2c2.1,2.1,3.2,4.9,3.2,7.8c0,3-1.1,5.8-3.2,7.8l-10.6,10.5  C465.4,435.9,462.6,437,459.7,437 M440.5,405.7l19.2,19.2l9.5-9.5L450,396.2L440.5,405.7z"></path>
<path class="st6" d="M326.4,292.6l10.5-10.6c2-2,5.3-2,7.3,0l20.2,20.2c2,2,2,5.3,0,7.3l-10.5,10.5c-2,2-5.3,2-7.3,0L326.4,300  C324.4,297.9,324.4,294.7,326.4,292.6"></path>
<path class="st7" d="M350.3,327.6c-3,0-5.7-1.2-7.8-3.3l-20.2-20.2c-2.1-2.1-3.3-4.9-3.3-7.8c0-3,1.2-5.7,3.3-7.8l10.5-10.5  c2.1-2.1,4.9-3.3,7.8-3.3s5.7,1.2,7.8,3.3l20.2,20.2c2.1,2.1,3.3,4.9,3.3,7.8c0,3-1.2,5.7-3.3,7.8l-10.5,10.5  C356,326.5,353.2,327.6,350.3,327.6 M331.1,296.3l19.2,19.2l9.5-9.5l-19.2-19.2L331.1,296.3z"></path>
<path class="st7" d="M476.9,374.4h-13.7c-6.1,0-11.1-5-11.1-11.1v-14.9c0-6.1,5-11.1,11.1-11.1h28.6c6.1,0,11.1,5,11.1,11.1v14.9  c0,3.3-2.7,5.9-5.9,5.9c-3.3,0-5.9-2.6-5.9-5.9v-14.2H464v13.4h13c3.3,0,5.9,2.7,5.9,5.9C482.9,371.8,480.2,374.4,476.9,374.4"></path>
<path class="st7" d="M337.1,374.4h-28.6c-6.1,0-11.1-5-11.1-11.1v-14.9c0-3.3,2.7-5.9,5.9-5.9c3.3,0,5.9,2.7,5.9,5.9v14.2h27.1  v-13.4h-13.1c-3.3,0-5.9-2.6-5.9-5.9s2.7-5.9,5.9-5.9h13.9c6.1,0,11.1,5,11.1,11.1v14.9C348.1,369.4,343.2,374.4,337.1,374.4"></path>
<path class="st7" d="M407.6,458.6h-14.9c-3.3,0-5.9-2.6-5.9-5.9c0-3.3,2.7-5.9,5.9-5.9h14.2v-27.1h-13.4v13.3c0,3.3-2.6,5.9-5.9,5.9  c-3.3,0-5.9-2.6-5.9-5.9v-14c0-6.1,5-11.1,11.1-11.1h14.9c6.1,0,11.1,5,11.1,11.1v28.6C418.7,453.6,413.7,458.6,407.6,458.6"></path>
<path class="st7" d="M407.6,303.9h-14.9c-6.1,0-11.1-5-11.1-11.1v-28.6c0-6.1,5-11.1,11.1-11.1h14.9c3.3,0,5.9,2.6,5.9,5.9  c0,3.3-2.6,5.9-5.9,5.9h-14.2V292h13.4v-12.9c0-3.3,2.7-5.9,5.9-5.9c3.3,0,5.9,2.7,5.9,5.9v13.7  C418.7,298.9,413.7,303.9,407.6,303.9"></path>
<path class="st7" d="M376.1,361.8h-7.5c-3.3,0-5.9-2.7-5.9-5.9c0-3.3,2.6-5.9,5.9-5.9h7.5c3.3,0,5.9,2.6,5.9,5.9  C382,359.1,379.3,361.8,376.1,361.8"></path>
<path class="st7" d="M403.9,361.8h-7.5c-3.3,0-5.9-2.7-5.9-5.9c0-3.3,2.6-5.9,5.9-5.9h7.5c3.3,0,5.9,2.6,5.9,5.9  C409.8,359.1,407.1,361.8,403.9,361.8"></path>
<path class="st7" d="M431.7,361.8h-7.5c-3.3,0-5.9-2.7-5.9-5.9c0-3.3,2.6-5.9,5.9-5.9h7.5c3.3,0,5.9,2.6,5.9,5.9  C437.6,359.1,434.9,361.8,431.7,361.8"></path>
</svg>